<?xml version="1.0" encoding="UTF-8" standalone="no"?>
<!-- Created with Inkscape (http://www.inkscape.org/) -->

<svg
   xmlns:dc="http://purl.org/dc/elements/1.1/"
   xmlns:cc="http://creativecommons.org/ns#"
   xmlns:rdf="http://www.w3.org/1999/02/22-rdf-syntax-ns#"
   xmlns:svg="http://www.w3.org/2000/svg"
   xmlns="http://www.w3.org/2000/svg"
   xmlns:sodipodi="http://sodipodi.sourceforge.net/DTD/sodipodi-0.dtd"
   xmlns:inkscape="http://www.inkscape.org/namespaces/inkscape"
   width="110mm"
   height="65mm"
   viewBox="0 0 110 65"
   version="1.1"
   id="svg8"
   sodipodi:docname="rysunekv4.svg"
   inkscape:version="0.92.4 (5da689c313, 2019-01-14)"
   inkscape:export-filename="C:\Users\user\Desktop\bitmapv2.png"
   inkscape:export-xdpi="96"
   inkscape:export-ydpi="96">
  <defs
     id="defs2">
    <inkscape:path-effect
       effect="perspective-envelope"
       up_left_point="68.733048,37.548841"
       up_right_point="89.106574,45.049034"
       down_left_point="68.684521,70.889977"
       down_right_point="89.210701,83.69373"
       id="path-effect4952"
       is_visible="true"
       deform_type="perspective"
       horizontal_mirror="false"
       vertical_mirror="false"
       overflow_perspective="false" />
    <inkscape:path-effect
       effect="perspective-envelope"
       up_left_point="-11.927653,76.221351"
       up_right_point="18.307963,73.963581"
       down_left_point="8.4710567,83.931494"
       down_right_point="41.243177,80.43013"
       id="path-effect4950"
       is_visible="true"
       deform_type="perspective"
       horizontal_mirror="false"
       vertical_mirror="false"
       overflow_perspective="false" />
    <inkscape:path-effect
       effect="perspective-envelope"
       up_left_point="50.513943,45.232105"
       up_right_point="89.000751,45.232105"
       down_left_point="50.513943,83.718914"
       down_right_point="89.000751,83.718914"
       id="path-effect4943"
       is_visible="true"
       deform_type="perspective"
       horizontal_mirror="false"
       vertical_mirror="false"
       overflow_perspective="false" />
    <inkscape:path-effect
       effect="perspective-envelope"
       up_left_point="93.143433,45.232105"
       up_right_point="126.28485,41.356697"
       down_left_point="93.143433,83.718914"
       down_right_point="126.01758,76.903541"
       id="path-effect4937"
       is_visible="true"
       deform_type="perspective"
       horizontal_mirror="false"
       vertical_mirror="false"
       overflow_perspective="false" />
    <inkscape:path-effect
       effect="perspective-envelope"
       up_left_point="-11.84871,76.169287"
       up_right_point="18.307963,73.963581"
       down_left_point="8.7451955,84.103194"
       down_right_point="41.560409,79.977143"
       id="path-effect4950-0"
       is_visible="true"
       deform_type="perspective"
       horizontal_mirror="false"
       vertical_mirror="false"
       overflow_perspective="false" />
    <inkscape:path-effect
       effect="perspective-envelope"
       up_left_point="68.733048,37.548841"
       up_right_point="89.000751,45.232105"
       down_left_point="68.684521,70.889977"
       down_right_point="89.000751,83.718914"
       id="path-effect4952-4"
       is_visible="true"
       deform_type="perspective"
       horizontal_mirror="false"
       vertical_mirror="false"
       overflow_perspective="false" />
    <inkscape:path-effect
       effect="perspective-envelope"
       up_left_point="50.513943,45.232105"
       up_right_point="89.000751,45.232105"
       down_left_point="50.513943,83.718914"
       down_right_point="89.000751,83.718914"
       id="path-effect4943-4"
       is_visible="true"
       deform_type="perspective"
       horizontal_mirror="false"
       vertical_mirror="false"
       overflow_perspective="false" />
    <inkscape:path-effect
       effect="perspective-envelope"
       up_left_point="92.898781,45.044123"
       up_right_point="126.15843,41.301726"
       down_left_point="92.992084,83.721879"
       down_right_point="126.01758,76.903541"
       id="path-effect4937-4"
       is_visible="true"
       deform_type="perspective"
       horizontal_mirror="false"
       vertical_mirror="false"
       overflow_perspective="false" />
  </defs>
  <sodipodi:namedview
     id="base"
     pagecolor="#ffffff"
     bordercolor="#666666"
     borderopacity="1.0"
     inkscape:pageopacity="0.0"
     inkscape:pageshadow="2"
     inkscape:zoom="0.60811183"
     inkscape:cx="109.38515"
     inkscape:cy="405.82678"
     inkscape:document-units="mm"
     inkscape:current-layer="layer1"
     showgrid="false"
     inkscape:snap-global="false"
     inkscape:window-width="1920"
     inkscape:window-height="1001"
     inkscape:window-x="-9"
     inkscape:window-y="-9"
     inkscape:window-maximized="1"
     units="mm"
     width="100mm" />
  <metadata
     id="metadata5">
    <rdf:RDF>
      <cc:Work
         rdf:about="">
        <dc:format>image/svg+xml</dc:format>
        <dc:type
           rdf:resource="http://purl.org/dc/dcmitype/StillImage" />
        <dc:title></dc:title>
      </cc:Work>
    </rdf:RDF>
  </metadata>
  <g
     inkscape:label="Layer 1"
     inkscape:groupmode="layer"
     id="layer1"
     transform="translate(0,-232)">
    <g
       transform="translate(-0.02620976,92.873061)"
       id="g1637">
      <g
         id="g1625"
         transform="translate(-4.5357142)">
        <path
           inkscape:connector-curvature="0"
           style="opacity:1;fill:#808080;fill-opacity:1;fill-rule:nonzero;stroke:none;stroke-width:0.18474764;stroke-miterlimit:4;stroke-dasharray:none;stroke-opacity:1"
           d="m 50.016035,159.257 -4.100526,6.28489 h 16.444476 z m -14.21257,21.78213 -5.256009,8.05584 28.662849,11.52436 12.985771,-19.5802 z"
           id="path1581" />
        <path
           inkscape:connector-curvature="0"
           style="opacity:1;fill:#999999;fill-opacity:1;fill-rule:nonzero;stroke:none;stroke-width:0.17281024;stroke-miterlimit:4;stroke-dasharray:none;stroke-opacity:1"
           d="m 51.415432,161.53748 c -0.957382,-0.0236 -1.999848,0.5278 -2.619478,1.47691 l -1.650029,2.5275 h 12.665376 l -7.485329,-3.78272 h -5.3e-4 c -0.281498,-0.14225 -0.590894,-0.21382 -0.910021,-0.22169 z m -14.386719,19.50165 -3.441649,5.27203 c -0.814324,1.24734 -0.518332,2.63648 0.656291,3.11247 l 22.797573,9.2382 c 1.027068,0.41619 2.464806,-0.17849 3.229261,-1.3317 l 10.798823,-16.291 z"
           id="path1583" />
        <path
           inkscape:connector-curvature="0"
           style="opacity:1;fill:#808080;fill-opacity:1;fill-rule:nonzero;stroke:none;stroke-width:0.18474764;stroke-miterlimit:4;stroke-dasharray:none;stroke-opacity:1"
           d="m 38.357316,142.93758 -14.795997,22.60431 h 22.495266 l 4.133598,-6.37274 z m -11.331609,38.10155 3.695382,8.14369 5.282364,-8.14369 z"
           id="path1585" />
        <path
           inkscape:connector-curvature="0"
           style="opacity:1;fill:#999999;fill-opacity:1;fill-rule:nonzero;stroke:none;stroke-width:0.17281024;stroke-miterlimit:4;stroke-dasharray:none;stroke-opacity:1"
           d="m 38.334577,144.99534 c -0.440782,0.0205 -1.014856,0.45949 -1.504817,1.20819 l -12.655042,19.33836 h 21.021971 l 2.431378,-3.74706 c 0.812673,-1.25239 1.05324,-2.83557 0.545184,-3.54345 l -9.340513,-13.01471 c -0.124622,-0.17364 -0.297805,-0.25066 -0.498161,-0.24133 z m -10.317199,36.04379 2.224154,4.82658 c 0.40459,0.87807 1.396791,0.57096 2.220018,-0.69763 l 2.679425,-4.12895 z"
           id="path1587" />
        <path
           inkscape:connector-curvature="0"
           style="opacity:1;fill:#ffffff;fill-opacity:1;fill-rule:nonzero;stroke:none;stroke-width:0.18474764;stroke-miterlimit:4;stroke-dasharray:none;stroke-opacity:1"
           d="m 30.181069,162.87073 c -0.57971,0.0177 -1.291378,0.539 -1.906344,1.48002 -0.243036,0.37188 -0.449284,0.77681 -0.614947,1.19114 h 3.54035 c 0.155215,-0.85071 0.111596,-1.63391 -0.167431,-2.14096 -0.203637,-0.37004 -0.503801,-0.54083 -0.851628,-0.5302 z"
           id="path1589" />
        <path
           id="path1591"
           d="m 42.143407,164.10164 c -1.06713,1.64189 -2.470437,2.08709 -3.123386,1.00987 -0.641985,-1.05913 -0.314147,-3.1953 0.721773,-4.78606 1.035091,-1.5894 2.410781,-2.07172 3.083687,-1.06322 0.684379,1.02569 0.384137,3.19893 -0.682074,4.83941 z"
           style="opacity:1;fill:#ffffff;fill-opacity:1;fill-rule:nonzero;stroke:none;stroke-width:0.18474765;stroke-miterlimit:4;stroke-dasharray:none;stroke-opacity:1"
           inkscape:connector-curvature="0" />
        <path
           inkscape:connector-curvature="0"
           style="opacity:1;fill:#808080;fill-opacity:1;fill-rule:nonzero;stroke:none;stroke-width:0.18474764;stroke-miterlimit:4;stroke-dasharray:none;stroke-opacity:1"
           d="m 38.269982,142.93758 11.746053,16.40727 11.875243,6.19704 h 8.321974 l -7.609356,-8.89507 z"
           id="path1593" />
        <path
           inkscape:connector-curvature="0"
           style="opacity:1;fill:#999999;fill-opacity:1;fill-rule:nonzero;stroke:none;stroke-width:0.17281024;stroke-miterlimit:4;stroke-dasharray:none;stroke-opacity:1"
           d="m 40.217149,144.49821 c -0.19381,0.007 -0.205843,0.16174 0.01188,0.46354 l 9.257318,12.83177 c 0.572894,0.79412 1.964428,1.92577 3.102134,2.5213 l 9.985954,5.22707 h 7.22385 l -6.563424,-7.70547 c -0.531259,-0.62369 -1.640946,-1.50626 -2.49959,-1.98903 l -19.43809,-10.92957 c -0.510787,-0.28719 -0.886225,-0.42684 -1.080038,-0.41961 z"
           id="path1595" />
        <path
           id="path1597"
           d="m 56.781024,159.8037 c 0.785529,1.01234 0.181155,1.18287 -1.382563,0.3533 -1.585247,-0.84099 -3.505585,-2.36312 -4.256069,-3.37143 -0.736232,-0.98915 -0.05133,-1.09096 1.498448,-0.2544 1.529438,0.82557 3.369218,2.27896 4.140184,3.27253 z"
           style="opacity:1;fill:#ffffff;fill-opacity:1;fill-rule:nonzero;stroke:none;stroke-width:0.18474765;stroke-miterlimit:4;stroke-dasharray:none;stroke-opacity:1"
           inkscape:connector-curvature="0" />
        <path
           id="path1599"
           d="m 62.411492,158.56024 c 0.739581,0.88234 0.27268,1.01644 -1.068531,0.27817 -1.35744,-0.74719 -3.058224,-2.08304 -3.772777,-2.96183 -0.702593,-0.86409 -0.172165,-0.94496 1.159946,-0.20158 1.316657,0.73476 2.953899,2.01736 3.681362,2.88524 z"
           style="opacity:1;fill:#ffffff;fill-opacity:1;fill-rule:nonzero;stroke:none;stroke-width:0.18474765;stroke-miterlimit:4;stroke-dasharray:none;stroke-opacity:1"
           inkscape:connector-curvature="0" />
        <path
           id="path1601"
           d="m 59.771517,159.14327 c 0.762665,0.94291 0.233576,1.09353 -1.210606,0.31225 -1.462782,-0.79135 -3.26671,-2.21427 -3.99993,-3.15339 -0.720172,-0.92242 -0.119807,-1.0128 1.313176,-0.22557 1.415333,0.77753 3.147963,2.14019 3.89736,3.06671 z"
           style="opacity:1;fill:#ffffff;fill-opacity:1;fill-rule:nonzero;stroke:none;stroke-width:0.18474765;stroke-miterlimit:4;stroke-dasharray:none;stroke-opacity:1"
           inkscape:connector-curvature="0" />
        <path
           inkscape:connector-curvature="0"
           style="opacity:1;fill:#808080;fill-opacity:1;fill-rule:nonzero;stroke:none;stroke-width:0.18474764;stroke-miterlimit:4;stroke-dasharray:none;stroke-opacity:1"
           d="m 81.805309,148.44629 -17.541049,17.0956 h 30.4307 z m -13.719577,32.59284 13.302546,17.41238 14.868861,-17.41238 z"
           id="path1603" />
        <path
           inkscape:connector-curvature="0"
           style="opacity:1;fill:#999999;fill-opacity:1;fill-rule:nonzero;stroke:none;stroke-width:0.17281024;stroke-miterlimit:4;stroke-dasharray:none;stroke-opacity:1"
           d="m 81.427553,150.95208 c -0.390832,0.005 -0.76072,0.14683 -1.056783,0.43718 L 65.940128,165.54189 H 93.518805 L 83.316845,152.0161 c -0.527749,-0.69966 -1.237904,-1.07209 -1.889292,-1.06402 z m -12.036475,30.08705 10.37146,13.5816 c 0.908796,1.19007 2.316861,1.35987 3.152264,0.38706 l 11.99565,-13.96866 z"
           id="path1605" />
        <path
           inkscape:connector-curvature="0"
           style="opacity:1;fill:#808080;fill-opacity:1;fill-rule:nonzero;stroke:none;stroke-width:0.18474764;stroke-miterlimit:4;stroke-dasharray:none;stroke-opacity:1"
           d="m 44.830821,181.03913 14.682824,19.37246 21.983671,-2.04793 -13.169739,-17.32453 z"
           id="path1607" />
        <path
           inkscape:connector-curvature="0"
           style="opacity:1;fill:#999999;fill-opacity:1;fill-rule:nonzero;stroke:none;stroke-width:0.17281024;stroke-miterlimit:4;stroke-dasharray:none;stroke-opacity:1"
           d="m 45.469543,181.03913 12.627134,16.65893 c 0.791522,1.04428 2.022311,1.82602 2.766758,1.75235 l 17.40617,-1.72237 c 0.9451,-0.0935 0.983546,-1.13055 0.07648,-2.32389 l -10.91871,-14.36502 z"
           id="path1609" />
        <path
           id="path1611"
           d="m 61.693946,191.89323 c 1.115688,1.47039 1.076583,2.78568 -0.07104,2.93519 -1.129753,0.14719 -2.911627,-0.89413 -3.995476,-2.32345 -1.083569,-1.42889 -1.083904,-2.73721 0.0143,-2.92516 1.115567,-0.19092 2.936866,0.84343 4.052209,2.31342 z"
           style="opacity:1;fill:#ffffff;fill-opacity:1;fill-rule:nonzero;stroke:none;stroke-width:0.18474765;stroke-miterlimit:4;stroke-dasharray:none;stroke-opacity:1"
           inkscape:connector-curvature="0" />
        <path
           inkscape:connector-curvature="0"
           style="opacity:1;fill:#ffffff;fill-opacity:1;fill-rule:nonzero;stroke:none;stroke-width:0.18474764;stroke-miterlimit:4;stroke-dasharray:none;stroke-opacity:1"
           d="m 58.265661,181.03913 c 1.125006,1.0922 2.587892,1.75665 3.579625,1.54409 0.732155,-0.15691 1.036394,-0.75487 0.907954,-1.54409 z"
           id="path1613" />
        <path
           inkscape:connector-curvature="0"
           style="opacity:1;fill:#808080;fill-opacity:1;fill-rule:nonzero;stroke:none;stroke-width:0.18474764;stroke-miterlimit:4;stroke-dasharray:none;stroke-opacity:1"
           d="m 81.928298,148.41477 -20.307805,8.72866 -9.31881,8.39846 h 12.505698 z"
           id="path1615" />
        <path
           inkscape:connector-curvature="0"
           style="opacity:1;fill:#999999;fill-opacity:1;fill-rule:nonzero;stroke:none;stroke-width:0.17281024;stroke-miterlimit:4;stroke-dasharray:none;stroke-opacity:1"
           d="m 79.551183,149.89065 c -0.156755,-0.01 -0.429262,0.0621 -0.805637,0.22272 l -15.847094,6.76497 c -0.728652,0.31104 -1.860175,1.05746 -2.554367,1.68464 l -7.724593,6.97891 h 11.67629 l 15.01924,-14.95723 c 0.437123,-0.43532 0.497419,-0.67789 0.236161,-0.69401 z"
           id="path1617" />
        <path
           inkscape:connector-curvature="0"
           style="opacity:1;fill:#ffffff;fill-opacity:1;fill-rule:nonzero;stroke:none;stroke-width:0.18474764;stroke-miterlimit:4;stroke-dasharray:none;stroke-opacity:1"
           d="m 63.505133,163.13997 c -0.145904,0.0107 -0.336256,0.0566 -0.570508,0.14107 -0.974169,0.35115 -2.441075,1.27357 -3.654557,2.26085 h 2.697509 c 0.320223,-0.26315 0.627169,-0.52956 0.896586,-0.79272 1.062693,-1.03801 1.263226,-1.6556 0.63097,-1.6092 z"
           id="path1619" />
        <path
           id="path1621"
           d="m 63.349492,157.76152 c 1.045924,-0.43489 1.047735,0.007 -0.03483,1.01209 -1.10331,1.02456 -2.872113,2.20837 -3.910301,2.61785 -1.015542,0.40056 -0.920229,-0.10428 0.174614,-1.10298 1.075043,-0.98063 2.74666,-2.10124 3.770517,-2.52696 z"
           style="opacity:1;fill:#ffffff;fill-opacity:1;fill-rule:nonzero;stroke:none;stroke-width:0.18474765;stroke-miterlimit:4;stroke-dasharray:none;stroke-opacity:1"
           inkscape:connector-curvature="0" />
        <path
           id="path1623"
           d="m 63.160714,160.27373 c 1.13862,-0.44483 1.138866,0.0828 -0.04576,1.20876 -1.209468,1.14959 -3.144445,2.44092 -4.273546,2.85307 -1.102209,0.40233 -0.98684,-0.20003 0.212168,-1.31635 1.175405,-1.09435 2.994668,-2.31087 4.107138,-2.74548 z"
           style="opacity:1;fill:#ffffff;fill-opacity:1;fill-rule:nonzero;stroke:none;stroke-width:0.18474765;stroke-miterlimit:4;stroke-dasharray:none;stroke-opacity:1"
           inkscape:connector-curvature="0" />
      </g>
      <g
         transform="translate(-4.5357145,75.370007)"
         id="g1635">
        <path
           id="path1627"
           d="m 14.963951,93.701465 6.218622,4.18543 -6.218622,4.185755 H 104.8545 l -6.21861,-4.185755 6.21861,-4.18543 z"
           style="opacity:1;fill:#999999;fill-opacity:1;fill-rule:nonzero;stroke:none;stroke-width:0.19996186;stroke-miterlimit:4;stroke-dasharray:none;stroke-opacity:1"
           inkscape:connector-curvature="0"
           inkscape:export-filename="C:\Users\user\Desktop\path5548.png"
           inkscape:export-xdpi="95"
           inkscape:export-ydpi="95" />
        <text
           xml:space="preserve"
           style="font-style:normal;font-variant:normal;font-weight:bold;font-stretch:normal;font-size:7.44024944px;line-height:0;font-family:sans-serif;-inkscape-font-specification:'sans-serif Bold';letter-spacing:0px;word-spacing:0px;fill:#ffffff;fill-opacity:1;stroke:none;stroke-width:0.27900934"
           x="29.130505"
           y="105.93257"
           id="text1631"
           transform="scale(1.0545236,0.94829551)"
           inkscape:export-filename="C:\Users\user\Desktop\path5548.png"
           inkscape:export-xdpi="95"
           inkscape:export-ydpi="95"><tspan
             sodipodi:role="line"
             id="tspan1629"
             x="29.130505"
             y="105.93257"
             style="font-style:normal;font-variant:normal;font-weight:bold;font-stretch:normal;font-size:7.44024944px;line-height:0;font-family:sans-serif;-inkscape-font-specification:'sans-serif Bold';fill:#ffffff;stroke-width:0.27900934">TOGRAMYNIE</tspan></text>
        <path
           inkscape:connector-curvature="0"
           id="path1633"
           d="m 8.6520385,91.712175 7.0922275,6.17448 -7.0922275,6.175285 H 111.16642 l -7.09146,-6.175285 7.09146,-6.17448 z m 3.0858795,1.03735 h 96.342622 l -6.66498,5.13713 6.66498,5.137535 H 11.737918 l 6.664975,-5.137535 z"
           style="opacity:1;fill:#666666;fill-opacity:1;fill-rule:nonzero;stroke:none;stroke-width:0.25936982;stroke-miterlimit:4;stroke-dasharray:none;stroke-opacity:1"
           inkscape:export-filename="C:\Users\user\Desktop\path5548.png"
           inkscape:export-xdpi="95"
           inkscape:export-ydpi="95" />
      </g>
    </g>
    <g
       transform="translate(-2.0788691,-134.9375)"
       id="g1697" />
  </g>
</svg>
