<?xml version="1.0" encoding="UTF-8" standalone="no"?>
<svg
   xmlns:dc="http://purl.org/dc/elements/1.1/"
   xmlns:cc="http://creativecommons.org/ns#"
   xmlns:rdf="http://www.w3.org/1999/02/22-rdf-syntax-ns#"
   xmlns:svg="http://www.w3.org/2000/svg"
   xmlns="http://www.w3.org/2000/svg"
   xmlns:sodipodi="http://sodipodi.sourceforge.net/DTD/sodipodi-0.dtd"
   xmlns:inkscape="http://www.inkscape.org/namespaces/inkscape"
   id="svg8"
   version="1.1"
   viewBox="0 0 103 69"
   height="69mm"
   width="103mm"
   sodipodi:docname="logo.svg"
   inkscape:version="0.92.4 (5da689c313, 2019-01-14)">
  <sodipodi:namedview
     pagecolor="#ffffff"
     bordercolor="#666666"
     borderopacity="1"
     objecttolerance="10"
     gridtolerance="10"
     guidetolerance="10"
     inkscape:pageopacity="0"
     inkscape:pageshadow="2"
     inkscape:window-width="1920"
     inkscape:window-height="1001"
     id="namedview846"
     showgrid="false"
     inkscape:zoom="0.7198092"
     inkscape:cx="396.85039"
     inkscape:cy="561.25984"
     inkscape:window-x="-9"
     inkscape:window-y="-9"
     inkscape:window-maximized="1"
     inkscape:current-layer="svg8"
     width="75mm" />
  <defs
     id="defs2" />
  <metadata
     id="metadata5">
    <rdf:RDF>
      <cc:Work
         rdf:about="">
        <dc:format>image/svg+xml</dc:format>
        <dc:type
           rdf:resource="http://purl.org/dc/dcmitype/StillImage" />
        <dc:title></dc:title>
      </cc:Work>
    </rdf:RDF>
  </metadata>
  <g
     id="layer1"
     transform="translate(-8.4542082,-1.9418244)">
    <path
       id="rect4650"
       d="m 50.384779,20.935525 -4.100526,6.284889 H 62.728729 Z M 36.172209,42.717657 30.9162,50.773497 59.579049,62.297858 72.56482,42.717657 Z"
       style="opacity:1;fill:#808080;fill-opacity:1;fill-rule:nonzero;stroke:none;stroke-width:0.18474764;stroke-miterlimit:4;stroke-dasharray:none;stroke-opacity:1"
       inkscape:connector-curvature="0" />
    <path
       id="rect4652"
       d="m 51.784176,23.216006 c -0.957382,-0.0236 -1.999848,0.527796 -2.619478,1.476912 l -1.650029,2.527496 h 12.665376 l -7.485329,-3.782716 h -5.3e-4 c -0.281498,-0.142256 -0.590894,-0.213826 -0.910021,-0.221692 z m -14.386719,19.501651 -3.441649,5.27203 c -0.814324,1.247335 -0.518332,2.636483 0.656291,3.112471 l 22.797573,9.238196 c 1.027068,0.416195 2.464806,-0.178487 3.229261,-1.3317 L 71.437756,42.717657 Z"
       style="opacity:1;fill:#999999;fill-opacity:1;fill-rule:nonzero;stroke:none;stroke-width:0.17281024;stroke-miterlimit:4;stroke-dasharray:none;stroke-opacity:1"
       inkscape:connector-curvature="0" />
    <path
       id="rect4644"
       d="M 38.72606,4.6161074 23.930063,27.220414 h 22.495266 l 4.133598,-6.372738 z m -11.331609,38.1015496 3.695382,8.14369 5.282364,-8.14369 z"
       style="opacity:1;fill:#808080;fill-opacity:1;fill-rule:nonzero;stroke:none;stroke-width:0.18474764;stroke-miterlimit:4;stroke-dasharray:none;stroke-opacity:1"
       inkscape:connector-curvature="0" />
    <path
       id="rect4646"
       d="m 38.703321,6.6738646 c -0.440782,0.020532 -1.014856,0.459486 -1.504817,1.2081933 L 24.543462,27.220414 h 21.021971 l 2.431378,-3.747058 c 0.812673,-1.252395 1.05324,-2.835572 0.545184,-3.543454 L 39.201482,6.9151937 C 39.07686,6.7415529 38.903677,6.6645354 38.703321,6.6738646 Z m -10.317199,36.0437924 2.224154,4.82658 c 0.40459,0.878065 1.396791,0.570957 2.220018,-0.697632 l 2.679425,-4.128948 z"
       style="opacity:1;fill:#999999;fill-opacity:1;fill-rule:nonzero;stroke:none;stroke-width:0.17281024;stroke-miterlimit:4;stroke-dasharray:none;stroke-opacity:1"
       inkscape:connector-curvature="0" />
    <path
       id="circle4648"
       d="m 30.549813,24.549257 c -0.57971,0.01773 -1.291378,0.539001 -1.906344,1.480013 -0.243036,0.371883 -0.449284,0.776814 -0.614947,1.191144 h 3.54035 c 0.155215,-0.850712 0.111596,-1.633913 -0.167431,-2.140956 -0.203637,-0.370046 -0.503801,-0.540832 -0.851628,-0.530201 z"
       style="opacity:1;fill:#ffffff;fill-opacity:1;fill-rule:nonzero;stroke:none;stroke-width:0.18474764;stroke-miterlimit:4;stroke-dasharray:none;stroke-opacity:1"
       inkscape:connector-curvature="0" />
    <path
       style="opacity:1;fill:#ffffff;fill-opacity:1;fill-rule:nonzero;stroke:none;stroke-width:0.18474765;stroke-miterlimit:4;stroke-dasharray:none;stroke-opacity:1"
       d="m 42.512151,25.780166 c -1.06713,1.641885 -2.470437,2.087085 -3.123386,1.00987 -0.641985,-1.059131 -0.314147,-3.195301 0.721773,-4.786057 1.035091,-1.589408 2.410781,-2.071721 3.083687,-1.063225 0.684379,1.025692 0.384137,3.198936 -0.682074,4.839412 z"
       id="circle4656"
       inkscape:connector-curvature="0" />
    <path
       id="rect4625"
       d="m 38.638726,4.6161074 11.746053,16.4072676 11.875243,6.197039 h 8.321974 L 62.97264,18.32535 Z"
       style="opacity:1;fill:#808080;fill-opacity:1;fill-rule:nonzero;stroke:none;stroke-width:0.18474764;stroke-miterlimit:4;stroke-dasharray:none;stroke-opacity:1"
       inkscape:connector-curvature="0" />
    <path
       id="rect4625-0"
       d="m 40.585893,6.1767363 c -0.19381,0.00722 -0.205843,0.1617345 0.01188,0.4635368 l 9.257318,12.8317759 c 0.572894,0.79412 1.964428,1.925769 3.102134,2.521294 l 9.985954,5.227071 h 7.22385 L 63.603605,19.51494 c -0.531259,-0.623686 -1.640946,-1.506251 -2.49959,-1.989026 L 41.665925,6.5963496 C 41.155138,6.3091576 40.7797,6.1695026 40.585887,6.1767363 Z"
       style="opacity:1;fill:#999999;fill-opacity:1;fill-rule:nonzero;stroke:none;stroke-width:0.17281024;stroke-miterlimit:4;stroke-dasharray:none;stroke-opacity:1"
       inkscape:connector-curvature="0" />
    <path
       style="opacity:1;fill:#ffffff;fill-opacity:1;fill-rule:nonzero;stroke:none;stroke-width:0.18474765;stroke-miterlimit:4;stroke-dasharray:none;stroke-opacity:1"
       d="m 57.149768,21.482228 c 0.785529,1.01234 0.181155,1.182868 -1.382563,0.353297 -1.585247,-0.840993 -3.505585,-2.363125 -4.256069,-3.371429 -0.736232,-0.989154 -0.05133,-1.090964 1.498448,-0.254405 1.529438,0.825579 3.369218,2.278964 4.140184,3.272537 z"
       id="circle4648-2"
       inkscape:connector-curvature="0" />
    <path
       style="opacity:1;fill:#ffffff;fill-opacity:1;fill-rule:nonzero;stroke:none;stroke-width:0.18474765;stroke-miterlimit:4;stroke-dasharray:none;stroke-opacity:1"
       d="m 62.780236,20.238765 c 0.739581,0.882338 0.27268,1.016438 -1.068531,0.278175 -1.35744,-0.747198 -3.058224,-2.083047 -3.772777,-2.961836 -0.702593,-0.864084 -0.172165,-0.944957 1.159946,-0.201576 1.316657,0.734756 2.953899,2.017352 3.681362,2.885237 z"
       id="circle4656-0"
       inkscape:connector-curvature="0" />
    <path
       style="opacity:1;fill:#ffffff;fill-opacity:1;fill-rule:nonzero;stroke:none;stroke-width:0.18474765;stroke-miterlimit:4;stroke-dasharray:none;stroke-opacity:1"
       d="m 60.140261,20.821791 c 0.762665,0.942915 0.233576,1.093535 -1.210606,0.312253 -1.462782,-0.791347 -3.26671,-2.214271 -3.99993,-3.15339 -0.720172,-0.922414 -0.119807,-1.012802 1.313176,-0.225572 1.415333,0.777535 3.147963,2.140198 3.89736,3.066709 z"
       id="circle4656-0-1"
       inkscape:connector-curvature="0" />
    <path
       id="rect4650-4"
       d="m 82.174053,10.124814 -17.541049,17.0956 h 30.4307 z M 68.454476,42.717657 81.757022,60.130032 96.625883,42.717657 Z"
       style="opacity:1;fill:#808080;fill-opacity:1;fill-rule:nonzero;stroke:none;stroke-width:0.18474764;stroke-miterlimit:4;stroke-dasharray:none;stroke-opacity:1"
       inkscape:connector-curvature="0" />
    <path
       id="rect4652-3"
       d="m 81.796297,12.630606 c -0.390832,0.0048 -0.76072,0.146828 -1.056783,0.437182 L 66.308872,27.220414 H 93.887549 L 83.685589,13.694623 C 83.15784,12.994961 82.447685,12.622539 81.796297,12.630606 Z m -12.036475,30.087051 10.37146,13.5816 c 0.908796,1.190064 2.316861,1.359866 3.152264,0.387056 l 11.99565,-13.968656 z"
       style="opacity:1;fill:#999999;fill-opacity:1;fill-rule:nonzero;stroke:none;stroke-width:0.17281024;stroke-miterlimit:4;stroke-dasharray:none;stroke-opacity:1"
       inkscape:connector-curvature="0" />
    <path
       id="rect4644-6"
       d="M 45.199565,42.717657 59.882389,62.090118 81.86606,60.042182 68.696321,42.717657 Z"
       style="opacity:1;fill:#808080;fill-opacity:1;fill-rule:nonzero;stroke:none;stroke-width:0.18474764;stroke-miterlimit:4;stroke-dasharray:none;stroke-opacity:1"
       inkscape:connector-curvature="0" />
    <path
       id="rect4646-9"
       d="m 45.838287,42.717657 12.627134,16.658931 c 0.791522,1.044274 2.022311,1.82602 2.766758,1.752349 l 17.40617,-1.722377 c 0.9451,-0.09352 0.983546,-1.130546 0.07648,-2.323888 L 67.796119,42.717657 Z"
       style="opacity:1;fill:#999999;fill-opacity:1;fill-rule:nonzero;stroke:none;stroke-width:0.17281024;stroke-miterlimit:4;stroke-dasharray:none;stroke-opacity:1"
       inkscape:connector-curvature="0" />
    <path
       style="opacity:1;fill:#ffffff;fill-opacity:1;fill-rule:nonzero;stroke:none;stroke-width:0.18474765;stroke-miterlimit:4;stroke-dasharray:none;stroke-opacity:1"
       d="m 62.06269,53.57176 c 1.115688,1.470388 1.076583,2.785674 -0.07104,2.93519 -1.129753,0.147189 -2.911627,-0.894139 -3.995476,-2.323451 -1.083569,-1.428898 -1.083904,-2.737216 0.0143,-2.925165 1.115567,-0.190918 2.936866,0.843435 4.052209,2.313426 z"
       id="circle4648-23"
       inkscape:connector-curvature="0" />
    <path
       id="circle4656-6"
       d="m 58.634405,42.717657 c 1.125006,1.092198 2.587892,1.756646 3.579625,1.544093 0.732155,-0.156919 1.036394,-0.754878 0.907954,-1.544093 z"
       style="opacity:1;fill:#ffffff;fill-opacity:1;fill-rule:nonzero;stroke:none;stroke-width:0.18474764;stroke-miterlimit:4;stroke-dasharray:none;stroke-opacity:1"
       inkscape:connector-curvature="0" />
    <path
       id="rect4625-2"
       d="m 82.297042,10.093292 -20.307805,8.728667 -9.31881,8.398455 h 12.505698 z"
       style="opacity:1;fill:#808080;fill-opacity:1;fill-rule:nonzero;stroke:none;stroke-width:0.18474764;stroke-miterlimit:4;stroke-dasharray:none;stroke-opacity:1"
       inkscape:connector-curvature="0" />
    <path
       id="rect4625-0-3"
       d="m 79.919927,11.569172 c -0.156755,-0.0097 -0.429262,0.06206 -0.805637,0.222726 L 63.267196,18.55686 c -0.728652,0.311047 -1.860175,1.05746 -2.554367,1.68465 l -7.724593,6.978904 h 11.67629 l 15.01924,-14.957227 c 0.437123,-0.435324 0.497419,-0.677891 0.236161,-0.694015 z"
       style="opacity:1;fill:#999999;fill-opacity:1;fill-rule:nonzero;stroke:none;stroke-width:0.17281024;stroke-miterlimit:4;stroke-dasharray:none;stroke-opacity:1"
       inkscape:connector-curvature="0" />
    <path
       id="circle4648-2-7"
       d="m 63.873877,24.818492 c -0.145904,0.01072 -0.336256,0.05664 -0.570508,0.141076 -0.974169,0.351147 -2.441075,1.273564 -3.654557,2.260846 h 2.697509 c 0.320223,-0.263147 0.627169,-0.529558 0.896586,-0.792718 1.062693,-1.038008 1.263226,-1.655604 0.63097,-1.609204 z"
       style="opacity:1;fill:#ffffff;fill-opacity:1;fill-rule:nonzero;stroke:none;stroke-width:0.18474764;stroke-miterlimit:4;stroke-dasharray:none;stroke-opacity:1"
       inkscape:connector-curvature="0" />
    <path
       style="opacity:1;fill:#ffffff;fill-opacity:1;fill-rule:nonzero;stroke:none;stroke-width:0.18474765;stroke-miterlimit:4;stroke-dasharray:none;stroke-opacity:1"
       d="m 63.718236,19.440043 c 1.045924,-0.43489 1.047735,0.0068 -0.03483,1.012096 -1.10331,1.024554 -2.872113,2.208364 -3.910301,2.61785 -1.015542,0.40056 -0.920229,-0.104283 0.174614,-1.102979 1.075043,-0.980636 2.74666,-2.101248 3.770517,-2.526967 z"
       id="circle4656-0-6"
       inkscape:connector-curvature="0" />
    <path
       style="opacity:1;fill:#ffffff;fill-opacity:1;fill-rule:nonzero;stroke:none;stroke-width:0.18474765;stroke-miterlimit:4;stroke-dasharray:none;stroke-opacity:1"
       d="m 63.529458,21.952256 c 1.13862,-0.444827 1.138866,0.08277 -0.04576,1.208755 -1.209468,1.149592 -3.144445,2.440927 -4.273546,2.853071 -1.102209,0.402329 -0.98684,-0.200029 0.212168,-1.316349 1.175405,-1.094344 2.994668,-2.310864 4.107138,-2.745477 z"
       id="circle4656-0-1-5"
       inkscape:connector-curvature="0" />
    <path
       id="path5107"
       d="m 9.020783,28.685526 7.092227,6.174479 -7.092227,6.17528 H 111.53516 l -7.09146,-6.17528 7.09146,-6.174479 z m 3.085879,1.03735 h 96.342618 l -6.66498,5.137129 6.66498,5.13753 H 12.106662 l 6.664975,-5.13753 z"
       style="opacity:1;fill:#666666;fill-opacity:1;fill-rule:nonzero;stroke:none;stroke-width:0.25936982;stroke-miterlimit:4;stroke-dasharray:none;stroke-opacity:1"
       inkscape:connector-curvature="0" />
    <path
       style="opacity:1;fill:#999999;fill-opacity:1;fill-rule:nonzero;stroke:none;stroke-width:0.19996184;stroke-miterlimit:4;stroke-dasharray:none;stroke-opacity:1"
       d="m 15.332695,30.674816 6.218622,4.185429 -6.218622,4.18575 h 89.890545 l -6.21861,-4.18575 6.21861,-4.185429 z"
       id="path5101"
       inkscape:connector-curvature="0" />
    <text
       transform="scale(1.0545236,0.94829551)"
       id="text5527"
       y="39.365738"
       x="33.527279"
       style="font-style:normal;font-variant:normal;font-weight:normal;font-stretch:normal;font-size:7.44024944px;line-height:1.25;font-family:'Berlin Sans FB Demi';-inkscape-font-specification:'Berlin Sans FB Demi';letter-spacing:0px;word-spacing:0px;fill:#ffffff;fill-opacity:1;stroke:none;stroke-width:0.27900934"
       xml:space="preserve"><tspan
         style="font-style:normal;font-variant:normal;font-weight:normal;font-stretch:normal;font-size:7.44024944px;font-family:'Berlin Sans FB Demi';-inkscape-font-specification:'Berlin Sans FB Demi';fill:#ffffff;stroke-width:0.27900934"
         y="39.365738"
         x="33.527279"
         id="tspan5525">TOGRAMYNIE</tspan></text>
    <path
       style="opacity:1;fill:#666666;fill-opacity:1;fill-rule:nonzero;stroke:none;stroke-width:0.25936982;stroke-miterlimit:4;stroke-dasharray:none;stroke-opacity:1"
       d="m 9.020783,28.685526 7.092227,6.174479 -7.092227,6.17528 H 111.53516 l -7.09146,-6.17528 7.09146,-6.174479 z m 3.085879,1.03735 h 96.342618 l -6.66498,5.137129 6.66498,5.13753 H 12.106662 l 6.664975,-5.13753 z"
       id="path5531"
       inkscape:connector-curvature="0" />
  </g>
</svg>
